<svg data-v-0dd9719b="" version="1.0" xmlns="http://www.w3.org/2000/svg" xmlns:xlink="http://www.w3.org/1999/xlink" width="100%" height="100%" viewBox="0 0 340.000000 250.000000" preserveAspectRatio="xMidYMid meet" color-interpolation-filters="sRGB" style="margin: auto;"> <rect data-v-0dd9719b="" x="0" y="0" width="100%" height="100%" fill="#fff" fill-opacity="1" class="background"></rect> <rect data-v-0dd9719b="" x="0" y="0" width="100%" height="100%" fill="url(#watermark)" fill-opacity="1" class="watermarklayer"></rect> <g data-v-0dd9719b="" fill="#333" class="icon-text-wrapper icon-svg-group iconsvg" transform="translate(47.89500427249936,96.97257041931152)"><g class="iconsvg-imagesvg" transform="translate(0,0)"><g><rect fill="#333" fill-opacity="0" stroke-width="2" x="0" y="0" width="60" height="56.054859022029554" class="image-rect"></rect> <svg x="0" y="0" width="60" height="56.054859022029554" filtersec="colorsb8730592939" class="image-svg-svg primary" style="overflow: visible;"><svg xmlns="http://www.w3.org/2000/svg" viewBox="0.000701904296875 0.0007009506225585938 90.90908813476562 84.93158721923828"><g fill-rule="evenodd"><path d="M46.22 30.11l10.38-2.82a.5.5 0 0 1 .47.85 22.69 22.69 0 0 0-4.18 5.24 24.47 24.47 0 0 0-2.55 6.33L47.6 50.07a.49.49 0 0 1-1 0 23.29 23.29 0 0 0-2.45-6.26A24.11 24.11 0 0 0 40 38.44l-7.61-7.55a.5.5 0 0 1 .5-.83 22.77 22.77 0 0 0 6.64 1 24 24 0 0 0 6.71-.95zm1.06 3.82a28.2 28.2 0 0 1-5.23 1l.7.7a28.35 28.35 0 0 1 3.5 4.08l.26-1a28.2 28.2 0 0 1 1.77-5.07z" fill="#d01612"></path><path d="M34.75 43.72L18 27c-6-6 3-15 9-9 5.43 5.42 11.74 6.52 17.28 4.94l22.82-6.17c8.2-2.22 11.52 10.14 3.31 12.34C63 31.1 58.93 36 57.53 41.6l-6.07 22.85c-2.18 8.21-14.55 4.9-12.35-3.3 2-7.42-.22-13.43-4.36-17.43zm2.82-2.81c5.07 4.87 7.79 12.2 5.36 21.26a2.44 2.44 0 1 0 4.71 1.26l6-22.86c1.68-6.83 6.67-12.85 15.73-15.28a2.43 2.43 0 1 0-1.26-4.7l-22.78 6.19c-6.75 2-14.46.64-21.09-6a2.44 2.44 0 1 0-3.45 3.45z" fill="#e9390f"></path><path d="M65.2 43.66L59.09 66.5c-2.45 9.14-10.58 11.86-17.48 10S29 68.24 31.47 59.1a9.71 9.71 0 0 0-2.33-9.77l-16.73-16.7c-6.7-6.7-5-15.1.07-20.15s13.45-6.77 20.15-.07a9.72 9.72 0 0 0 9.62 2.86l22.84-6.14c9.14-2.45 15.56 3.23 17.41 10.13s-.87 15-10 17.49a9.7 9.7 0 0 0-7.29 6.91zm-3.84-1c1.12-4.34 4.33-8.15 10.1-9.7 6.63-1.77 8.6-7.66 7.26-12.65s-6-9.11-12.61-7.33L43.28 19.1c-4.32 1.2-9.22.33-13.45-3.9-4.85-4.85-10.93-3.61-14.59 0s-4.89 9.74 0 14.59L32 46.52c3.19 3.14 4.89 7.83 3.34 13.6-1.77 6.63 2.34 11.28 7.33 12.61s10.88-.63 12.66-7.25z" fill="#ff6d15"></path><path d="M23.51 55a2.43 2.43 0 0 1 .33 2.09c-3.81 14.19 5 24.15 15.74 27s23.35-1.34 27.15-15.52l6.16-22.83a2.36 2.36 0 0 1 1.64-1.33C88.72 40.58 92.93 28 90.06 17.24S77.23-2.31 63 1.49L40.19 7.57a2.37 2.37 0 0 1-2-.75C27.83-3.57 14.79-.91 6.94 6.94s-10.51 20.89-.12 31.28L23.51 55zm2.82-2.82L9.61 35.42c-8.54-8.54-6.35-19.26.1-25.71s17.17-8.64 25.71-.1a6.05 6.05 0 0 0 5.8 1.82l22.84-6.12c11.67-3.12 19.85 4.13 22.21 12.94s-1.1 19.19-12.76 22.32A6.06 6.06 0 0 0 69 44.68l-6.09 22.84c-3.12 11.66-13.5 15.13-22.31 12.77S24.53 69.74 27.66 58.07a6 6 0 0 0-1.33-5.93z" fill="#fc9506"></path></g></svg></svg> <!----></g></g> <g transform="translate(67,0.17117881774902344)"><g data-gra="path-name" fill-rule="" class="tp-name iconsvg-namesvg" transform="translate(0,0)"><g transform="scale(1)"><g><path d="M28.93-13.05Q31-9.81 34.65-7.4 38.3-5 43.52-3.69L43.52-3.69Q41.04-0.18 39.78 3.78L39.78 3.78Q32.35 1.67 27.56-2.5 22.77-6.66 19.66-13.05L19.66-13.05 15.21-13.05 15.21-5.04 22.68-6.88 24.07 0.94 7.42 4.5Q6.79 1.08 4.5-2.34L4.5-2.34Q5.8-3.1 6.46-4.48 7.11-5.85 7.11-9.09L7.11-9.09 7.11-13.05 2.38-13.05 2.38-20.7 7.11-20.7 7.11-35.1 15.21-35.1 15.21-20.7 42.12-20.7 42.12-13.05 28.93-13.05ZM40.59-28.26Q29.52-24.3 18.81-21.2L18.81-21.2Q17.68-24.7 15.79-28.48L15.79-28.48Q26.91-31.59 36.54-34.92L36.54-34.92 40.59-28.26ZM62.1-30.46Q60.62-29.52 59.42-27.77 58.23-26.01 57.47-23.89L57.47-23.89Q55.26-25.38 53.41-26.44 51.57-27.49 51.26-27.68L51.26-27.68 48.02-29.52 52.78-35.68 53.87-35.1Q59.76-31.9 62.1-30.46L62.1-30.46ZM88.65-17.19Q85.41-17.37 82.17-14.98L82.17-14.98 87.44-11.07Q83.43-6.48 79.34-3.53 75.24-0.58 70.92 1.24 66.6 3.06 60.88 4.63L60.88 4.63Q59.8 0.32 57.24-2.43L57.24-2.43Q56.43-0.63 55.94 0.32L55.94 0.32 54.05 4.46Q52.6 3.24 50.49 2.38 48.38 1.53 46.58 1.4L46.58 1.4Q49.77-4.68 52.7-11.92L52.7-11.92 60.12-9.27Q58.91-6.12 57.42-2.79L57.42-2.79Q66.56-4.86 73.94-9.95L73.94-9.95 69.3-9.95 69.3-26.01Q67.32-16.38 65.2-11.52L65.2-11.52Q63.63-12.6 61.45-13.43 59.27-14.26 57.64-14.26L57.64-14.26Q58.45-16.02 59.4-18.4L59.4-18.4Q57.33-16.52 55.53-12.51L55.53-12.51Q51.8-15.16 47.88-17.82L47.88-17.82 46.26-18.95 51.3-24.97Q53.33-23.89 57.06-21.29L57.06-21.29 59.8-19.48Q61.61-24.39 63.27-31.77L63.27-31.77 69.3-30.29 69.3-35.23 77.4-35.23 77.4-30.06 82.57-32.04Q83.61-29.47 85.05-26.23L85.05-26.23Q85.95-24.07 86.87-21.85 87.8-19.62 88.65-17.19L88.65-17.19ZM81.09-15.75Q80.37-18.13 79.54-20.27 78.7-22.41 77.4-25.47L77.4-25.47 77.4-12.55Q79.06-13.95 80.95-15.88L80.95-15.88 81.09-15.75ZM127.39-8.69Q128.7-7.15 130.23-5.74 131.76-4.32 134.01-2.43L134.01-2.43Q130.86 0.32 129.01 4.41L129.01 4.41Q125.37 1.08 122.98-1.93L122.98-1.93Q120.02 1.67 115.97 4.63L115.97 4.63Q115.02 2.16 113.22 0.36L113.22 0.36Q112.19 2.11 111.42 4.14L111.42 4.14Q110.61 3.73 106.69 1.75L106.69 1.75 105.25 0.99Q100.84 3.42 94.64 4.5L94.64 4.5Q94.28 2.83 93.69 1.44 93.11 0.04 91.89-1.75L91.89-1.75Q94.95-2.16 97.47-2.88L97.47-2.88Q95.27-3.92 93.06-4.77L93.06-4.77Q94.32-6.39 95.22-8.01L95.22-8.01 92.2-8.01 92.2-13.9 94.09-13.9Q93.33-17.1 91.22-19.62L91.22-19.62Q94.5-20.43 97.29-22.05L97.29-22.05 92.25-22.05 92.25-28.44 94.86-28.44 92.61-33.07 98.37-34.92 100.44-31 100.44-35.28 107.5-35.28 107.5-31.18 109.44-34.92 115.78-33.07 113.13-28.44 114.75-28.44 114.75-25.02Q116.82-29.56 118.08-35.23L118.08-35.23 125.73-35.23Q125.37-33.7 124.47-30.73L124.47-30.73 132.84-30.73 132.84-22.63 131.44-22.63Q130.55-14.89 127.39-8.69L127.39-8.69ZM100.44-29.43Q98.91-29.07 97.97-28.44L97.97-28.44 100.44-28.44 100.44-29.43ZM109.62-28.44Q108.72-29.02 107.5-29.29L107.5-29.29 107.5-28.44 109.62-28.44ZM123.07-16.2Q124.02-19.35 124.34-22.63L124.34-22.63 121.72-22.63Q122.04-18.99 123.07-16.2L123.07-16.2ZM111.19-22.05Q111.64-21.73 112.63-20.97L112.63-20.97 113.27-22.05 111.19-22.05ZM105.75-15.25Q105.57-14.8 105.3-13.9L105.3-13.9 111.51-13.9Q109.89-15.39 107.5-17.23L107.5-17.23 107.5-15.25 105.75-15.25ZM98.5-15.71L100.44-15.71 100.44-17.23Q98.14-15.34 95.27-13.9L95.27-13.9 97.83-13.9 98.5-15.71ZM112.72-3.01Q116.55-5.76 118.75-8.41L118.75-8.41Q117.36-11.07 116.41-13.86L116.41-13.86Q116.1-13.41 115.38-12.51L115.38-12.51Q114.93-14.71 113.94-16.65L113.94-16.65Q112.72-15.52 111.83-13.9L111.83-13.9 114.03-13.9 114.03-8.01Q112.86-5.58 111.19-3.69L111.19-3.69Q112.28-3.24 112.72-3.01L112.72-3.01ZM102.19-7.29Q103.64-6.79 104.85-6.3L104.85-6.3Q106.02-7.25 106.52-8.01L106.52-8.01 102.6-8.01 102.19-7.29ZM108.63-22.05L107.5-22.05 107.5-20.79 108.63-22.05ZM169.16-33.8Q171.72-30.91 174.35-28.87 176.99-26.82 179.59-25.2L179.59-25.2Q177.8-24.03 176.74-22.34 175.68-20.65 175-18.36L175-18.36Q169.25-22.36 164.2-27.49L164.2-27.49Q161.82-24.84 159.44-22.72 157.05-20.61 154.26-18.31L154.26-18.31Q153.45-20.52 152.26-22.16 151.06-23.8 149.22-24.84L149.22-24.84 150.84-26.01 148.14-26.01 148.14-20.97 150.79-20.97 150.79-12.87 148.14-12.87 148.14-7.02 151.6-7.51 151.6 0.58 137.38 2.65Q137.47 1.17 137.16-1.71 136.84-4.59 136.4-5.4L136.4-5.4 140.35-5.94 140.35-12.87 137.52-12.87 137.52-20.97 140.35-20.97 140.35-26.01 137.16-26.01 137.16-34.11 151.47-34.11 151.47-26.46Q153.94-28.35 156.19-30.44 158.44-32.53 160.34-35.23L160.34-35.23 170.1-35.23 169.16-33.8ZM169.88-18.9Q168.7-18.45 167.72-17.59L167.72-17.59 176.22-17.59 176.22-10.21 170.1-4.14Q172.71-3.01 174.87-2.02L174.87-2.02Q173.47-0.85 172.49 1.06 171.5 2.97 171.13 5.08L171.13 5.08Q158.9-0.67 151.65-3.33L151.65-3.33 155.7-9.86 151.74-9.76 151.74-17.59 161.59-17.59Q160.43-18.95 158.35-20.97L158.35-20.97 164.29-25.33Q166-23.54 166.97-22.43 167.94-21.33 169.88-18.9L169.88-18.9ZM156.33-9.86L163.03-7.11 166.19-10.04 156.33-9.86Z" transform="translate(-2.380000114440918, 35.68000030517578)"></path></g> <!----> <!----> <!----> <!----> <!----> <!----> <!----></g></g> <g data-gra="path-slogan" fill-rule="" class="tp-slogan iconsvg-slogansvg" fill="#333" transform="translate(5,46.76000213623047)"><rect x="0" height="1" y="3.9750003814697266" width="19.199993133544922"></rect> <rect height="1" y="3.9750003814697266" width="19.199993133544922" x="148.0099983215332"></rect> <g transform="translate(22.199993133544922,0)"><g transform="scale(1)"><path d="M8.06-6.05L8.06-6.05L6.94-6.05Q6.52-7.78 4.55-7.83L4.55-7.83Q1.83-7.69 1.73-4.36L1.73-4.36Q1.73-0.80 4.59-0.80L4.59-0.80Q6.56-0.84 7.03-3.19L7.03-3.19L8.16-3.19Q7.64 0.05 4.36 0.14L4.36 0.14Q0.61 0 0.52-4.31L0.52-4.31Q0.70-8.63 4.55-8.81L4.55-8.81Q7.59-8.72 8.06-6.05ZM10.69-5.06L15.19-5.06L15.19-8.58L16.36-8.58L16.36 0L15.19 0L15.19-3.98L10.69-3.98L10.69 0L9.52 0L9.52-8.58L10.69-8.58L10.69-5.06ZM23.81 0L22.97-2.48L19.50-2.48L18.61 0L17.44 0L20.67-8.58L21.98-8.58L25.08 0L23.81 0ZM21.23-7.31L19.88-3.52L22.55-3.52L21.28-7.31L21.23-7.31ZM27.52-8.58L31.83-1.64L31.83-8.58L32.95-8.58L32.95 0L31.64 0L27.28-6.94L27.23-6.94L27.23 0L26.11 0L26.11-8.58L27.52-8.58ZM41.16-3.61L38.53-3.61L38.53-4.59L42.28-4.59L42.28 0L41.53 0L41.25-1.08Q40.27 0.09 38.44 0.14L38.44 0.14Q36.70 0.14 35.77-0.75L35.77-0.75Q34.36-2.06 34.41-4.36L34.41-4.36Q34.73-8.63 38.48-8.81L38.48-8.81Q41.67-8.63 42.14-6L42.14-6L41.02-6Q40.55-7.78 38.44-7.83L38.44-7.83Q35.77-7.64 35.63-4.31L35.63-4.31Q35.63-0.75 38.48-0.75L38.48-0.75Q39.52-0.75 40.27-1.31L40.27-1.31Q41.20-2.06 41.16-3.61L41.16-3.61ZM50.34-6.09L50.34-6.09L49.27-6.09Q49.17-7.73 47.11-7.83L47.11-7.83Q45.19-7.78 45.19-6.33L45.19-6.33Q45.19-5.39 46.22-5.25L46.22-5.25L48.66-4.69Q50.58-4.22 50.58-2.34L50.58-2.34Q50.53 0.05 47.20 0.14L47.20 0.14Q45.38 0.14 44.63-0.61L44.63-0.61Q43.69-1.31 43.73-2.77L43.73-2.77L44.86-2.77Q44.91-0.80 47.20-0.75L47.20-0.75Q49.45-0.80 49.50-2.20L49.50-2.20Q49.69-3.38 47.63-3.75L47.63-3.75L45.84-4.13Q44.02-4.64 44.02-6.19L44.02-6.19Q44.16-8.72 47.02-8.81L47.02-8.81Q50.25-8.81 50.34-6.09ZM53.20-5.06L57.70-5.06L57.70-8.58L58.88-8.58L58.88 0L57.70 0L57.70-3.98L53.20-3.98L53.20 0L52.03 0L52.03-8.58L53.20-8.58L53.20-5.06ZM66.33 0L65.48-2.48L62.02-2.48L61.13 0L59.95 0L63.19-8.58L64.50-8.58L67.59 0L66.33 0ZM63.75-7.31L62.39-3.52L65.06-3.52L63.80-7.31L63.75-7.31ZM78.23-6.09L78.23-6.09L77.16-6.09Q77.06-7.73 75-7.83L75-7.83Q73.08-7.78 73.08-6.33L73.08-6.33Q73.08-5.39 74.11-5.25L74.11-5.25L76.55-4.69Q78.47-4.22 78.47-2.34L78.47-2.34Q78.42 0.05 75.09 0.14L75.09 0.14Q73.27 0.14 72.52-0.61L72.52-0.61Q71.58-1.31 71.63-2.77L71.63-2.77L72.75-2.77Q72.80-0.80 75.09-0.75L75.09-0.75Q77.34-0.80 77.39-2.20L77.39-2.20Q77.58-3.38 75.52-3.75L75.52-3.75L73.73-4.13Q71.91-4.64 71.91-6.19L71.91-6.19Q72.05-8.72 74.91-8.81L74.91-8.81Q78.14-8.81 78.23-6.09ZM81.09-5.06L85.59-5.06L85.59-8.58L86.77-8.58L86.77 0L85.59 0L85.59-3.98L81.09-3.98L81.09 0L79.92 0L79.92-8.58L81.09-8.58L81.09-5.06ZM94.22-3.19L94.22-8.58L95.39-8.58L95.39-3.05Q95.25 0.05 91.88 0.14L91.88 0.14Q88.73 0.05 88.59-2.86L88.59-2.86L88.59-8.58L89.77-8.58L89.77-3.19Q89.81-0.84 91.92-0.80L91.92-0.80Q94.22-0.84 94.22-3.19L94.22-3.19ZM97.17-8.58L98.34-8.58L98.34-1.03L102.70-1.03L102.70 0L97.17 0L97.17-8.58ZM104.02-8.58L105.19-8.58L105.19 0L104.02 0L104.02-8.58ZM108.56-8.58L112.88-1.64L112.88-8.58L114-8.58L114 0L112.69 0L108.33-6.94L108.28-6.94L108.28 0L107.16 0L107.16-8.58L108.56-8.58ZM122.20-3.61L119.58-3.61L119.58-4.59L123.33-4.59L123.33 0L122.58 0L122.30-1.08Q121.31 0.09 119.48 0.14L119.48 0.14Q117.75 0.14 116.81-0.75L116.81-0.75Q115.41-2.06 115.45-4.36L115.45-4.36Q115.78-8.63 119.53-8.81L119.53-8.81Q122.72-8.63 123.19-6L123.19-6L122.06-6Q121.59-7.78 119.48-7.83L119.48-7.83Q116.81-7.64 116.67-4.31L116.67-4.31Q116.67-0.75 119.53-0.75L119.53-0.75Q120.56-0.75 121.31-1.31L121.31-1.31Q122.25-2.06 122.20-3.61L122.20-3.61Z" transform="translate(-0.515625, 8.8125)"></path></g></g></g></g></g><defs v-gra="od"></defs></svg>